# ProBuilder 5.0.6
# https://unity3d.com/unity/features/worldbuilding/probuilder
# 26.9.2022. 14:01:29

mtllib ./PolyShape.mtl
o PolyShape

g PolyShape
v 0.1934713 0.2813622 -0.4033795
v -0.497668 0.2813622 0.4033794
v 0.4976681 0.2813622 0.3594413
v -0.497668 -0.2813622 0.4033794
v 0.1934713 -0.2813622 -0.4033795
v 0.4976681 -0.2813622 0.3594413

vt -0.1934713 -0.4033795
vt 0.497668 0.4033794
vt -0.4976681 0.3594413
vt -0.497668 0.4033794
vt 0.1934713 -0.4033795
vt 0.4976681 0.3594413
vt 0.6301162 -0.2813622
vt -0.4322084 -0.2813622
vt 0.6301162 0.2813622
vt -0.4322084 0.2813622
vt 0.3030218 -0.2813622
vt -0.5182158 -0.2813622
vt 0.3030218 0.2813622
vt -0.5182158 0.2813622
vt 0.4813322 -0.2813622
vt -0.5149733 -0.2813622
vt 0.4813322 0.2813622
vt -0.5149733 0.2813622

vn 0 1 0
vn 0 -1 0
vn -0.7594279 0 -0.6505914
vn 0.9288673 0 -0.3704126
vn 0.0441011 0 0.9990271

usemtl Prototype_512x512_Green2
f 3/3/1 1/1/1 2/2/1
f 4/4/2 5/5/2 6/6/2
f 1/10/3 5/8/3 4/7/3
f 4/7/3 2/9/3 1/10/3
f 3/14/4 6/12/4 5/11/4
f 5/11/4 1/13/4 3/14/4
f 2/18/5 4/16/5 6/15/5
f 6/15/5 3/17/5 2/18/5

